<svg width="152" height="57" viewBox="0 0 152 57" fill="none" xmlns="http://www.w3.org/2000/svg">
  <path opacity="0.1" fill-rule="evenodd" clip-rule="evenodd" d="M0.000539277 25.5989H7.30144L8.94765 21.6449H12.6331L14.275 25.5989H28.6401V22.5759L29.9224 25.6118H37.3796L38.6619 22.5308V25.5989H74.3619L74.3451 19.1083H75.0359C75.5196 19.125 75.6608 19.1696 75.6608 19.9648V25.5989H94.125V24.0879C95.6143 24.8826 97.9307 25.5989 100.979 25.5989H108.747L110.409 21.6449H114.095L115.72 25.5989H130.689V21.843L132.956 25.5989H144.951V0.770752H133.08V3.70298L131.418 0.770752H119.237V3.70298L117.71 0.770752H101.256C98.5017 0.770752 96.0807 1.15359 94.125 2.22049V0.770752H82.7703V2.22049C81.5258 1.12084 79.83 0.770752 77.9444 0.770752H36.4614L33.678 7.18343L30.8196 0.770752H17.7535V3.70298L16.3181 0.770752H5.1748L0 12.5754V25.5989H0.000539277ZM46.0863 22.0176H41.7057L41.6895 8.07542L35.4935 22.0176H31.7417L25.5294 8.06307V22.0176H16.8384L15.1965 18.0469H6.29959L4.64098 22.0176H0L7.65193 4.21589H14.0006L21.268 21.0705V4.21589H28.2422L33.8343 16.2922L38.9714 4.21589H46.0857V22.0176H46.0863ZM13.7362 14.3525L10.8115 7.25572L7.90355 14.3525H13.7362ZM63.5197 22.0176H49.2452V4.21589H63.5197V7.92293H53.5184V11.1317H63.2797V14.7807H53.5184V18.3358H63.5197V22.0176ZM83.6355 9.01023C83.6355 11.8485 81.7332 13.3149 80.6246 13.7552C81.5596 14.1096 82.3582 14.7356 82.7383 15.2543C83.3417 16.1397 83.4457 16.9306 83.4457 18.5205V22.0176H79.1358L79.1197 19.7727C79.1197 18.7015 79.2226 17.161 78.4451 16.3046C77.8207 15.6785 76.869 15.5427 75.3306 15.5427H70.7436V22.0176H66.4709V4.21589H76.2991C78.4829 4.21589 80.0919 4.27334 81.4733 5.06855C82.8251 5.86376 83.6355 7.02462 83.6355 9.01023ZM78.234 11.6536C77.6468 12.0086 76.9523 12.0204 76.1203 12.0204H70.9293V8.06634H76.1909C76.9355 8.06634 77.7126 8.09963 78.2173 8.38743C78.7716 8.64677 79.1145 9.19874 79.1145 9.9612C79.1145 10.7392 78.7883 11.3653 78.234 11.6536ZM90.4885 22.0176H86.1284V4.21589H90.4885V22.0176ZM141.102 22.0176H135.047L126.948 8.65639V22.0176H118.245L116.582 18.0469H107.706L106.093 22.0176H101.092C99.0154 22.0176 96.3857 21.5601 94.8964 20.0487C93.3947 18.5372 92.6134 16.4898 92.6134 13.2526C92.6134 10.6125 93.0804 8.19892 94.9169 6.2917C96.2984 4.87096 98.4617 4.21589 101.406 4.21589H105.543V8.03031H101.493C99.9337 8.03031 99.0532 8.2612 98.205 9.08487C97.4765 9.83444 96.9767 11.2514 96.9767 13.1173C96.9767 15.0245 97.3574 16.3996 98.1516 17.2979C98.8094 18.0024 100.005 18.2161 101.13 18.2161H103.049L109.071 4.21643H115.474L122.708 21.0543V4.21643H129.214L136.726 16.6144V4.21643H141.102V22.0176ZM115.129 14.3525L112.172 7.25572L109.231 14.3525H115.129Z" fill="black"/>
  <path opacity="0.1" fill-rule="evenodd" clip-rule="evenodd" d="M151.991 50.4421C150.953 51.9536 148.93 52.7198 146.192 52.7198H137.94V48.9016H146.159C146.974 48.9016 147.545 48.7948 147.888 48.4608C148.186 48.1853 148.393 47.7853 148.393 47.2994C148.393 46.7807 148.186 46.3689 147.871 46.1219C147.561 45.8502 147.11 45.7267 146.366 45.7267C142.354 45.5908 137.348 45.8502 137.348 40.2155C137.348 37.6328 138.995 34.9143 143.479 34.9143H151.99V31.3716H144.082C141.696 31.3716 139.962 31.9407 138.734 32.8256V31.3716H127.037C125.167 31.3716 122.971 31.8334 121.933 32.8256V31.3716H101.045V32.8256C99.3824 31.6315 96.5774 31.3716 95.2828 31.3716H81.5049V32.8256C80.1898 31.5574 77.2651 31.3716 75.4825 31.3716H60.0627L56.5341 35.1742L53.2293 31.3716H30.1953V56.2169H52.7957L56.4316 52.3542L59.8567 56.2169L73.7877 56.2292V50.3847H75.1573C77.0057 50.4131 79.1857 50.339 81.1091 49.511V56.2164H92.5997V49.7409H93.154C93.8614 49.7409 93.931 49.7699 93.931 50.4738V56.2158H128.837C131.053 56.2158 133.37 55.651 134.653 54.6259V56.2158H145.725C148.029 56.2158 150.279 55.8942 151.991 55.0705V50.4421ZM82.7795 40.8855C82.7795 45.8318 79.0735 46.853 75.3384 46.853H70.0067V52.8254H61.7013L56.4397 46.9309L50.9715 52.8254H34.0458V35.0194H51.232L56.4893 40.8559L61.9245 35.0194H75.5784C78.9695 35.0194 82.7795 35.9542 82.7795 40.8855ZM48.8075 49.0801H38.3015V45.5373H47.6827V41.9044H38.3015V38.6672H49.0145L53.6884 43.8562L48.8075 49.0801ZM65.7356 51.1189L59.175 43.8659L65.7356 36.8433V51.1189ZM75.4378 43.2016H69.9157V38.6672H75.4874C77.0301 38.6672 78.1009 39.2932 78.1009 40.8504C78.1009 42.3903 77.0797 43.2016 75.4378 43.2016ZM104.367 35.0194H118.629V38.7017H108.623V41.9389H118.384V45.5719H108.623V49.1146L118.629 49.1307V52.8254H104.367V35.0194ZM98.8843 44.5506C99.8354 44.9002 100.613 45.5268 100.977 46.0454C101.581 46.9148 101.668 47.7261 101.685 49.2956V52.8254H97.3955V50.5976C97.3955 49.5264 97.4991 47.9403 96.7048 47.1124C96.0804 46.4745 95.1287 46.322 93.5698 46.322H89.0033V52.8254H84.7095V35.0194H94.5749C96.7382 35.0194 98.3138 35.1144 99.7163 35.8597C101.065 36.671 101.913 37.7825 101.913 39.8137C101.912 42.6557 100.009 44.106 98.8843 44.5506ZM96.4688 42.2996C95.8973 42.6373 95.1904 42.6663 94.3589 42.6663H89.1679V38.6672H94.4296C95.1904 38.6672 95.9517 38.6833 96.4688 38.9888C97.0226 39.2771 97.3537 39.8286 97.3537 40.5905C97.3537 41.3524 97.0226 41.9661 96.4688 42.2996ZM135.044 43.4338C135.876 44.2913 136.322 45.3737 136.322 47.2063C136.322 51.0369 133.918 52.8249 129.609 52.8249H121.286V49.0067H129.576C130.386 49.0067 130.961 48.8998 131.321 48.5659C131.615 48.2904 131.826 47.8904 131.826 47.4044C131.826 46.8858 131.598 46.4739 131.304 46.2269C130.978 45.9552 130.527 45.8317 129.783 45.8317C125.787 45.6959 120.782 45.9552 120.782 40.3206C120.782 37.7379 122.412 35.0194 126.891 35.0194H135.458V38.8091H127.619C126.842 38.8091 126.337 38.8381 125.907 39.1307C125.439 39.4191 125.266 39.847 125.266 40.4119C125.266 41.0836 125.663 41.5405 126.201 41.7381C126.651 41.8944 127.136 41.94 127.864 41.94L130.164 42.0018C132.484 42.0581 134.076 42.4576 135.044 43.4338ZM152 38.6672H144.212C143.434 38.6672 142.918 38.6962 142.483 38.9888C142.032 39.2771 141.858 39.7051 141.858 40.2699C141.858 40.9417 142.239 41.3986 142.793 41.5962C143.244 41.7524 143.728 41.7981 144.439 41.7981L146.755 41.8598C149.092 41.9173 150.652 42.3173 151.603 43.2929C151.777 43.4288 151.881 43.5813 152 43.7337V38.6672Z" fill="black"/>
</svg>
