<svg width="83" height="65" viewBox="0 0 83 65" fill="none" xmlns="http://www.w3.org/2000/svg">
  <g opacity="0.1">
    <path fill-rule="evenodd" clip-rule="evenodd" d="M82.1388 32.7823C82.1388 13.3946 65.9562 -0.00644604 48.2265 2.32613e-06H32.968C15.0259 -0.00644604 0.257812 13.3986 0.257812 32.7823C0.257812 50.5152 15.0259 65.0847 32.968 64.9996H48.2265C65.9562 65.0846 82.1388 50.5113 82.1388 32.7823ZM33.0623 2.74655C16.6673 2.75171 3.38193 16.0676 3.37807 32.5021C3.38193 48.9337 16.6672 62.2483 33.0623 62.2534C49.4612 62.2483 62.7492 48.9337 62.7516 32.5021C62.7491 16.0676 49.4612 2.75171 33.0623 2.74655Z" fill="white"/>
    <path fill-rule="evenodd" clip-rule="evenodd" d="M14.3008 32.4216C14.3162 24.3908 19.3217 17.5426 26.3802 14.8213V50.0178C19.3217 47.298 14.3161 40.4536 14.3008 32.4216Z" fill="white"/>
    <path fill-rule="evenodd" clip-rule="evenodd" d="M39.8438 50.0267V14.8213C46.9047 17.5361 51.918 24.3881 51.9308 32.4228C51.918 40.4599 46.9047 47.3068 39.8438 50.0267Z" fill="white"/>
  </g>
</svg>
