<svg width="182" height="51" viewBox="0 0 182 51" fill="none" xmlns="http://www.w3.org/2000/svg">
  <path opacity="0.1" fill-rule="evenodd" clip-rule="evenodd" d="M162.621 0.5H127.959C129.823 11.5712 141.004 21.9281 153.303 21.9281H180.884C181.257 20.8567 181.257 19.4282 181.257 18.3568C181.257 8.35699 173.057 0.5 162.621 0.5Z" fill="black"/>
  <path opacity="0.1" fill-rule="evenodd" clip-rule="evenodd" d="M130.939 23.7148V50.5H147.712V36.2146H162.62C170.82 36.2146 177.901 30.8575 180.138 23.7148H130.939Z" fill="black"/>
  <path opacity="0.1" fill-rule="evenodd" clip-rule="evenodd" d="M71.3164 0.5V50.499H86.2249C86.2249 50.499 89.9521 50.499 91.8156 46.9277C101.879 27.6423 104.861 21.9282 104.861 21.9282H106.724V50.499H123.496V0.5H108.588C108.588 0.5 104.861 0.857136 102.997 4.07136C94.4246 20.4996 89.9521 29.0709 89.9521 29.0709H88.0885V0.5H71.3164Z" fill="black"/>
  <path opacity="0.1" fill-rule="evenodd" clip-rule="evenodd" d="M0.498047 50.499V0.5H17.2701C17.2701 0.5 22.1154 0.5 24.7244 7.64272C31.4332 26.5709 32.1786 29.0709 32.1786 29.0709C32.1786 29.0709 33.6695 24.4281 39.6329 7.64272C42.2419 0.5 47.0872 0.5 47.0872 0.5H63.8592V50.499H47.0872V23.7138H45.2236L35.9058 50.499H28.4515L19.1337 23.7138H17.2701V50.499H0.498047Z" fill="black"/>
</svg>
