<svg width="103" height="65" viewBox="0 0 103 65" fill="none" xmlns="http://www.w3.org/2000/svg">
  <g opacity="0.1">
    <path d="M46.618 29.7181C47.0099 29.1904 47.3085 27.9277 47.3645 27.5885C47.7191 26.062 47.6631 25.1197 46.8606 25.1197C45.8341 25.1197 45.4236 26.3824 45.0876 27.9089C44.9756 28.4366 44.8823 28.9266 44.8823 29.3977C44.901 30.3589 45.5355 30.3589 45.6475 30.3589C46.0208 30.3589 46.338 30.1139 46.618 29.7181Z" fill="white"/>
    <path d="M49.7453 37.3615H49.755L49.7453 37.3803V37.3615Z" fill="white"/>
    <path fill-rule="evenodd" clip-rule="evenodd" d="M43.6411 0H72.1102C68.5269 0 64.9436 2.93998 64.1038 6.57727L60.2586 23.2418C59.9206 23.058 59.5236 22.9982 59.1427 22.9982C58.6762 22.9982 57.8363 23.1113 57.0712 23.4882C56.8099 23.6201 56.5299 23.7897 56.2687 23.9593L56.4926 23.0547L56.362 22.904C54.757 23.2243 54.3837 23.2809 52.8907 23.4882L52.7787 23.5636C52.5921 25.0147 52.4428 26.1078 51.8082 28.9535L51.8081 28.9541L51.8079 28.9548C51.5654 30.0097 51.3229 31.0647 51.0617 32.1197L51.1364 32.2516C52.6667 32.1762 53.1333 32.1762 54.4584 32.1951L54.5703 32.082C54.6001 31.9284 54.6258 31.7955 54.6498 31.6709C54.7615 31.0925 54.8385 30.6939 55.1302 29.2362C55.202 28.9171 55.3015 28.4473 55.4063 27.9525L55.4063 27.952C55.5738 27.1611 55.7548 26.3062 55.8581 25.9005C56.1754 25.7497 56.5113 25.5989 56.8286 25.5989C57.5564 25.5989 57.4818 26.2586 57.4444 26.5224C57.4258 26.9559 57.1458 28.407 56.8659 29.632L56.6979 30.4235C56.6326 30.7157 56.5626 31.0031 56.4926 31.2905L56.4925 31.291C56.4225 31.5782 56.3526 31.8654 56.2873 32.1574L56.3433 32.2704C57.1756 32.2289 57.6854 32.2103 58.1904 32.2051L57.2528 36.2684H54.4346L50.4221 49.6868C50.2727 50.2145 50.1794 50.5914 50.1608 50.8176C50.1445 51.0316 50.3846 51.2457 50.5824 51.422C50.611 51.4475 50.6387 51.4722 50.6647 51.496C50.8472 51.6378 51.0932 51.6516 51.347 51.6658L51.3475 51.6658L51.348 51.6658C51.4311 51.6705 51.515 51.6752 51.5978 51.6845C51.9524 51.7033 52.4563 51.7222 53.1655 51.7222H53.687L52.1409 58.4227C51.3011 62.0412 53.5219 65 57.1239 65H28.6175C25.0155 65 22.7946 62.0412 23.6531 58.4227L31.2234 25.6146C31.7723 25.7159 31.7075 26.2826 31.6736 26.5224C31.6363 26.9559 31.375 28.407 31.095 29.632L30.9084 30.4235C30.8363 30.7996 30.7488 31.1678 30.6607 31.5383C30.612 31.7434 30.563 31.9492 30.5165 32.1574L30.5725 32.2704C32.0842 32.1951 32.5507 32.1951 33.8385 32.2139L33.8198 32.1951L33.9691 32.082C34.1889 30.7505 34.2649 30.3808 34.6556 28.4799L34.6783 28.3693L34.8836 27.4647C35.2942 25.6743 35.4808 24.7697 35.1822 24.0347C34.8649 23.2055 34.0811 22.9982 33.3719 22.9982C32.9974 22.9982 32.3825 23.071 31.7587 23.2947L35.6161 6.57727C36.4559 2.93998 40.0392 0 43.6411 0ZM38.3176 32.2141C38.5425 32.2164 38.7921 32.2189 39.0792 32.2189L39.1166 32.2377L39.2659 32.1247C39.2987 31.926 39.3234 31.7709 39.344 31.6425C39.3936 31.3323 39.4184 31.1772 39.4712 30.9374C39.5018 30.7416 39.5547 30.5064 39.6421 30.1179C39.7146 29.7957 39.8108 29.3681 39.9377 28.7701C40.0684 28.1482 40.2176 27.5263 40.3669 26.9044L40.8149 25.0385L40.7962 24.9632L40.7589 24.8878C39.9564 25.0385 39.4338 25.1328 38.9299 25.2082C38.7912 25.2289 38.6539 25.2497 38.5115 25.2712L38.5105 25.2713C38.1356 25.328 37.7245 25.3901 37.157 25.472L37.101 25.5285L37.045 25.5662C37.0326 25.6629 37.0208 25.7575 37.0091 25.8507C36.9503 26.3209 36.8958 26.756 36.8024 27.2435C36.709 27.8654 36.5597 28.5628 36.3358 29.5616C36.1492 30.3343 36.0558 30.5981 35.9625 30.862C35.8505 31.1258 35.7572 31.3897 35.5519 32.1435L35.5893 32.2189L35.6266 32.2754C35.9476 32.2671 36.2178 32.2551 36.4612 32.2443L36.4615 32.2443L36.4617 32.2443C36.7699 32.2307 37.0352 32.2189 37.3063 32.2189C37.6137 32.2069 37.9287 32.2101 38.3176 32.2141ZM50.4066 24.2339C50.8358 24.7993 51.1904 25.7416 50.7425 27.7393L50.7611 27.7393C50.6118 28.3612 50.2199 29.8312 49.3428 30.8112C48.2043 32.0173 46.6926 32.4319 45.2183 32.4319C44.6397 32.4319 43.7439 32.3566 43.128 32.0927C41.1124 31.2635 41.4297 29.0585 41.7096 27.8335C41.9709 26.6274 42.4375 25.3647 43.4266 24.4412C44.8077 23.1597 46.562 23.0843 47.3085 23.0843C48.5403 23.0843 49.7347 23.367 50.4066 24.2339ZM44.0848 40.9386H52.2778L51.6806 42.9174H48.4146L47.9107 44.5947H51.27L50.6541 46.6301H47.3134L46.4923 49.3628C46.399 49.6643 47.2948 49.702 47.612 49.702L49.2917 49.4758L48.6198 51.7374H44.8499C44.5513 51.7374 44.3274 51.6997 43.9914 51.6243C43.6742 51.5489 43.5249 51.3981 43.3942 51.1908C43.3704 51.1496 43.3435 51.1103 43.3164 51.0706C43.1944 50.8922 43.0668 50.7058 43.1889 50.3051L44.2714 46.6866H42.4051L43.021 44.6136H44.8873L45.3912 42.9363H43.5249L44.1221 40.9574L44.0848 40.9386ZM49.755 37.3615H53.1047L52.4888 39.4157H47.8977L47.3938 39.8492C47.2603 39.9727 47.1865 39.9959 47.0894 40.0263C47.0236 40.047 46.947 40.071 46.8339 40.1319C46.5727 40.2638 46.0314 40.5276 45.3222 40.5276H43.8479L44.4451 38.5488H44.893C45.2663 38.5488 45.5275 38.5111 45.6582 38.4357C45.8075 38.3415 45.9754 38.1342 46.1434 37.795L46.9832 36.2496H50.3239L49.755 37.3615ZM40.5193 24.3032C41.3778 23.7001 41.4898 22.8709 40.7619 22.4374C40.0341 22.0039 38.7464 22.1359 37.8879 22.7389C37.0294 23.3232 36.9361 24.1524 37.6639 24.6047C38.3731 25.0193 39.6608 24.9062 40.5193 24.3032Z" fill="white"/>
    <path d="M54.1762 49.6022L55.3612 44.4665H54.9945L53.7441 48.6691C53.6321 49.0837 53.5761 49.291 53.6507 49.4041C53.7067 49.4983 53.8747 49.6114 54.08 49.6114L54.1762 49.6022Z" fill="white"/>
    <path d="M56.0178 41.6207L55.796 42.5818H55.5544L55.8343 41.6207H56.0178Z" fill="white"/>
    <path d="M56.6664 38.8099L56.2505 40.6125C56.1601 40.6807 56.1042 40.7294 56.0847 40.7468L56.6664 38.8099Z" fill="white"/>
    <path d="M56.9268 37.6814L57.0884 36.981L56.8794 37.7196C56.8794 37.7196 56.8962 37.7058 56.9268 37.6814Z" fill="white"/>
    <path d="M56.0847 40.7468L56.0769 40.7726V40.7538C56.0769 40.7538 56.0795 40.7514 56.0847 40.7468Z" fill="white"/>
    <path fill-rule="evenodd" clip-rule="evenodd" d="M12.1628 6.57727C13.0026 2.93998 16.5859 0 20.1692 0H43.6408C40.0389 0 36.4556 2.93998 35.6157 6.57727L31.7583 23.2947C31.6049 23.3497 31.451 23.4138 31.3 23.4882C31.073 23.5952 30.8582 23.727 30.6358 23.8634C30.584 23.8952 30.5317 23.9273 30.4788 23.9593L30.7215 23.0547L30.5908 22.904C28.9672 23.2243 28.6126 23.2809 27.1195 23.4882L26.9889 23.5636C26.8209 25.0147 26.653 26.1078 26.0184 28.9535L26.0183 28.9541L26.0181 28.955C25.7756 30.0099 25.5331 31.0648 25.2719 32.1197L25.3465 32.2516C26.8769 32.1762 27.3435 32.1762 28.6685 32.1951L28.7805 32.082C28.8301 31.8263 28.8666 31.628 28.9031 31.43C28.9903 30.9568 29.0773 30.4852 29.3404 29.2362C29.4065 28.9426 29.4936 28.5214 29.5869 28.0705L29.587 28.0703L29.587 28.07L29.5871 28.0698L29.5871 28.0696C29.7572 27.2473 29.9478 26.3264 30.0683 25.9005L30.1213 25.8766C30.4377 25.7342 30.7382 25.5989 31.0387 25.5989C31.1068 25.5989 31.168 25.6044 31.223 25.6146L23.6528 58.4227C22.7943 62.0412 25.0152 65 28.6172 65H5.18289C1.59962 65 -0.639933 62.0412 0.199897 58.4227L12.1628 6.57727ZM21.3076 25.3553C21.3076 25.3553 23.0993 17.0442 23.1926 16.5918V16.6107C23.4539 16.6672 24.219 16.6861 26.8692 16.6672C26.8576 16.6789 26.8532 16.6977 26.8471 16.7238C26.8434 16.7399 26.839 16.7587 26.8318 16.7803C26.4959 17.798 24.5736 25.6568 24.5736 25.6568L24.3497 26.5049C23.9018 28.1445 23.3792 30.0102 21.3823 31.1975C20.2438 31.8948 18.5455 32.2906 16.7352 32.2906C15.3355 32.2906 12.8533 32.0644 11.9762 30.5191C11.6962 30.0479 11.5656 29.4637 11.5656 28.7664L11.8829 26.3918L12.0508 25.6756L13.9544 17.1384C13.9544 17.1384 14.0478 16.6672 14.0664 16.5918C14.1037 16.6484 14.7569 16.6861 18.3962 16.6484C18.3962 16.6672 18.3962 16.7049 18.3775 16.7615C18.0416 17.7603 16.1753 25.3364 16.1753 25.3364C16.1753 25.3553 15.8207 27.5979 15.8207 27.5979L15.8394 27.9749C15.9514 29.0868 16.6232 29.671 17.799 29.671C18.5269 29.671 19.1614 29.4637 19.7026 29.0114C20.6334 28.2406 20.9143 27.0386 21.3047 25.3678L21.3076 25.3553Z" fill="white"/>
    <path d="M79.7926 27.8819C79.9067 27.3823 79.9991 26.9561 80.0758 26.5794C80.024 25.8326 79.6861 25.4096 79.1429 25.4096C78.1164 25.4096 77.7058 26.6723 77.3699 28.1611C77.2579 28.6888 77.1646 29.1788 77.1646 29.6499C77.2019 30.5922 77.8178 30.5922 77.9298 30.5922C78.2844 30.5922 78.9189 30.3472 79.1802 29.9703C79.2406 29.889 79.2988 29.7897 79.3543 29.6788C79.5047 29.0807 79.6516 28.4813 79.7926 27.8819Z" fill="white"/>
    <path d="M67.8162 48.8764H70.2424L70.9329 46.5207H68.5254L67.8162 48.8764Z" fill="white"/>
    <path d="M69.7571 42.3934L69.7514 42.4122H69.7385L69.7571 42.3934Z" fill="white"/>
    <path d="M69.7514 42.4122L68.9173 45.1826C68.9173 45.1826 69.8318 44.7114 70.3357 44.5607C70.8396 44.4476 71.5861 44.3534 71.5861 44.3534L72.1646 42.4122H69.7514Z" fill="white"/>
    <path d="M70.9702 38.398L70.1677 41.0742C70.1677 41.0742 71.0635 40.6596 71.5674 40.5276C72.0713 40.3957 72.8178 40.358 72.8178 40.358L73.3964 38.4169H70.9889L70.9702 38.398Z" fill="white"/>
    <path d="M72.1715 21.4918C71.9475 22.5284 71.2757 23.4141 70.4172 23.8287C69.708 24.1868 68.8495 24.2245 67.9537 24.2245H67.3751L67.4124 23.9983C67.4124 23.9983 68.4762 19.3245 68.4762 19.3434L68.5135 19.0984L68.5322 18.9099L68.9615 18.9476C68.9615 18.9476 71.1637 19.1361 71.201 19.1361C72.0595 19.4753 72.4328 20.3422 72.1715 21.4918Z" fill="white"/>
    <path fill-rule="evenodd" clip-rule="evenodd" d="M97.8084 0H72.1096C68.5264 0 64.9431 2.93998 64.1032 6.57727L60.258 23.2418C60.5494 23.4002 60.797 23.6508 60.9525 24.0347C61.2511 24.7697 61.0458 25.6743 60.6352 27.4647L60.4299 28.3693C60.0136 30.307 59.9484 30.7021 59.7405 31.9624L59.7207 32.082L59.5714 32.1951L59.5901 32.2139C59.0113 32.2054 58.6022 32.2008 58.1898 32.2051L57.2523 36.2684H57.2894L57.0878 36.981L56.9262 37.6814C57.1191 37.5272 57.8615 36.9485 58.4092 36.7207C59.0438 36.4946 60.4621 36.2684 60.4621 36.2684L65.0905 36.2496L63.5042 41.5642C63.2429 42.4688 62.9256 43.053 62.739 43.3357C62.571 43.5995 62.3658 43.8445 61.9552 44.0707C61.5633 44.278 61.2087 44.4099 60.8727 44.4288C60.5741 44.4476 60.0889 44.4665 59.4543 44.4665H55.3606L54.1756 49.6022L56.039 49.423L55.3672 51.7222H53.6864L52.1403 58.4227C51.3005 62.0412 53.5214 65 57.1233 65H82.8035C86.3867 65 89.9887 62.0412 90.8285 58.4227L102.791 6.57727C103.631 2.95883 101.392 0 97.8084 0ZM62.7472 44.7635L62.7548 44.7258L62.7735 44.7635H62.7472ZM62.7472 44.7635L62.4936 46.0074C62.3816 46.4031 62.2883 46.7047 61.9897 46.9685C61.6724 47.2324 61.3178 47.5151 60.4593 47.5151L58.873 47.5904L58.8543 49.0227C58.8398 49.3293 58.9038 49.3758 58.9593 49.4162C58.9755 49.428 58.991 49.4392 59.0036 49.4562C59.0654 49.5187 59.1145 49.5423 59.1719 49.57C59.1838 49.5757 59.1961 49.5817 59.2089 49.5881L59.7128 49.5504L61.2245 49.4751L60.59 51.5858H58.8543C57.6412 51.5858 56.7267 51.5481 56.4468 51.322C56.1482 51.1335 56.1109 50.9073 56.1109 50.4927L56.2228 44.8766H59.0036L58.9663 46.0262H59.6381C59.8621 46.0262 60.0301 46.0074 60.1234 45.9508C60.2167 45.8943 60.2727 45.8001 60.31 45.6681L60.59 44.7635H62.7472ZM78.7474 32.4992C80.1845 32.4238 80.6324 32.4238 82.2001 32.4427V32.4615L82.3494 32.3484L82.3918 32.0906C82.6009 30.8193 82.8165 29.5087 83.3758 27.0904C83.5452 26.3956 83.7086 25.7007 83.8727 25.0025L83.8728 25.0023L83.8728 25.0021C83.9981 24.4694 84.1238 23.9348 84.253 23.3966L84.2157 23.2647C82.7286 23.5408 82.2434 23.6115 80.9823 23.7952L80.97 23.7969C80.8578 23.8133 80.7395 23.8305 80.6137 23.8489L80.5017 23.9431L80.4942 24.0015C80.4858 24.0655 80.4776 24.1286 80.4694 24.191C80.2319 23.842 79.8961 23.5468 79.4042 23.3554C78.7136 23.0727 77.09 23.4307 75.7089 24.7123C74.7384 25.6169 74.2532 26.8796 73.9919 28.0857C73.712 29.2919 73.3947 31.5157 75.3916 32.2884C76.0262 32.5711 76.6047 32.6465 77.1833 32.6088C77.7531 32.5768 78.2842 32.3083 78.7786 31.9123C78.7372 32.0705 78.6956 32.2284 78.6541 32.3861L78.7474 32.4992ZM77.572 36.2496H80.8194L80.8567 37.4746C80.8381 37.6819 81.006 37.7761 81.3979 37.7761H82.0511L81.4539 39.7926H79.6996C78.1879 39.9057 77.6094 39.2461 77.6467 38.5111L77.6215 37.5034L77.3529 38.3792H76.3078L76.3265 38.398L73.1911 48.8576H74.0309L73.7577 49.764H74.5191C74.7617 49.764 74.9857 49.6698 75.1536 49.5756C75.3216 49.5002 75.4709 49.4248 75.6202 49.1798L77.9717 45.844H74.8737L75.3963 44.0537H78.9422L79.4461 42.4141H75.9561L76.5533 40.3975H86.2581L85.6609 42.4141H82.3948L81.8909 44.0537H85.157L84.6157 45.844H81.0884L80.4539 46.5979H81.8909L82.2455 48.8594C82.2548 48.9155 82.2617 48.9669 82.2681 49.014C82.2874 49.1568 82.3014 49.2597 82.3575 49.3306C82.4322 49.4059 82.8614 49.4436 83.104 49.4436H83.5333L82.8614 51.6486H81.7603C81.6919 51.6486 81.608 51.6455 81.5085 51.6418H81.5084C81.3638 51.6364 81.1865 51.6298 80.9765 51.6298C80.7271 51.6018 80.5395 51.4908 80.3677 51.3892C80.3081 51.3539 80.2504 51.3197 80.1926 51.2906C79.9873 51.1963 79.6887 50.9513 79.6141 50.5179L79.2781 48.2563L77.6731 50.4802C77.1692 51.1775 76.4787 51.724 75.3029 51.724H73.0634L73.2764 51.0249H72.5379L72.3326 51.6845H69.3465L69.5518 51.0249H63.505L64.1023 49.0272H64.7181L67.8908 38.398L68.5254 36.2496H71.5674L71.2502 37.3238C71.2502 37.3238 72.0527 36.7396 72.8365 36.5323C73.4556 36.3645 76.4572 36.2832 77.5806 36.2582L77.572 36.2496ZM70.7718 16.6107L69.6893 16.6295C66.8899 16.6672 65.7701 16.6484 65.3222 16.5918C65.2849 16.7992 65.2102 17.1572 65.2102 17.1572C65.2102 17.1572 64.2024 21.831 64.2024 21.8499C64.2024 21.8499 61.8136 31.8006 61.7016 32.2718C64.1464 32.2341 65.1356 32.2341 65.5648 32.2906C65.6581 31.8194 66.218 29.0491 66.2367 29.0491C66.2367 29.0491 66.7219 27.0137 66.7406 26.9383C66.7406 26.9383 66.8899 26.731 67.0392 26.6368H67.2631C69.372 26.6368 71.7422 26.6368 73.6085 25.261C74.8776 24.3187 75.7361 22.9053 76.128 21.2091C76.2213 20.7945 76.296 20.3045 76.296 19.7957C76.296 19.1361 76.1653 18.4953 75.7921 17.9865C74.8403 16.6484 72.9553 16.6295 70.7718 16.6107ZM95.1128 23.0547L94.9821 22.904C93.3958 23.2243 93.0972 23.2809 91.6415 23.4882L91.5295 23.6013C91.5295 23.6091 91.5263 23.6169 91.5225 23.626C91.5172 23.639 91.5108 23.6546 91.5108 23.6767V23.6578C90.9225 25.0405 90.6595 25.5103 90.4011 25.9718C90.1841 26.3594 89.9703 26.7412 89.5699 27.6532C89.5699 27.559 89.5699 27.5024 89.5512 27.4082L89.3273 23.0736L89.1966 22.9228C88.6639 23.0244 88.2964 23.0995 87.9941 23.1613C87.3431 23.2942 86.9942 23.3655 85.9493 23.507L85.8373 23.6201C85.8186 23.6767 85.8186 23.7332 85.8186 23.7897L85.8373 23.8086L85.8611 23.9358L85.8613 23.9368C85.922 24.2616 85.9559 24.4427 85.9844 24.6248C86.0203 24.8542 86.0476 25.085 86.1092 25.6063L86.1098 25.6112C86.1277 25.7625 86.1485 25.9383 86.1732 26.1455C86.2233 26.5598 86.2787 26.9741 86.3337 27.3855L86.3338 27.3861C86.3813 27.7417 86.4286 28.0952 86.4718 28.4447C86.5114 28.7841 86.547 29.0772 86.5814 29.3609L86.5815 29.3612L86.5815 29.3615C86.6772 30.1485 86.7639 30.8627 86.9011 32.2893C86.4595 33.0218 86.1612 33.5626 85.8879 34.058C85.5144 34.7352 85.1876 35.3277 84.6055 36.2093L84.6205 36.2496H84.5255L83.779 37.4369L83.7604 37.4595C83.6778 37.5601 83.6221 37.6279 83.5177 37.663C83.4058 37.7196 83.2565 37.7384 83.0512 37.7384H82.6593L82.0807 39.6984L84.0776 39.7361C85.2347 39.7361 85.9812 39.1707 86.3732 38.4357L87.6033 36.3035H87.6289L87.8716 36.0208C88.7114 34.1927 95.1314 23.0736 95.1314 23.0736L95.1128 23.0547Z" fill="white"/>
    <path d="M55.7955 42.5818H59.6223C59.9204 42.5471 60.0706 42.5622 60.1508 42.5702C60.2011 42.5753 60.2238 42.5775 60.2382 42.563L60.5368 41.6207H56.0173L55.7955 42.5818Z" fill="white"/>
    <path d="M56.2499 40.6125C56.5844 40.3598 57.39 39.8385 58.5585 39.6419C58.9131 39.5665 61.1527 39.6042 61.1527 39.6042L61.4886 38.4734H56.7669L56.6658 38.8099L56.2499 40.6125Z" fill="white"/>
  </g>
</svg>
