<svg width="180" height="55" viewBox="0 0 180 55" fill="none" xmlns="http://www.w3.org/2000/svg">
  <path opacity="0.1" fill-rule="evenodd" clip-rule="evenodd" d="M93.0917 17.5832C92.989 25.2446 100.307 29.5202 105.821 32.062C111.485 34.6704 113.388 36.3428 113.366 38.6749C113.323 42.2447 108.848 43.82 104.659 43.8813C97.3509 43.9887 93.1025 42.0146 89.7243 40.5212L87.0921 52.1769C90.481 53.6549 96.7563 54.9437 103.264 55C118.539 55 128.533 47.8654 128.587 36.8031C128.646 22.7641 108.064 21.9867 108.204 15.7114C108.253 13.8088 110.172 11.7784 114.377 11.2619C116.458 11.001 122.203 10.8016 128.717 13.64L131.273 2.36284C127.771 1.15585 123.268 0 117.663 0C103.286 0 93.1728 7.23173 93.0917 17.5832ZM155.839 0.971729C153.05 0.971729 150.699 2.51116 149.65 4.874L127.83 54.1715H143.094L146.132 46.2288L164.785 46.2288L166.547 54.1715H180L168.26 0.971729H155.839ZM157.974 15.3431L162.379 35.3199L150.315 35.3199L157.974 15.3431ZM74.5847 0.971729L62.553 54.1715H77.0981L89.1244 0.971729L74.5847 0.971729ZM53.0671 0.971729L37.9275 37.1815L31.8035 6.39297C31.0846 2.95611 28.247 0.971729 25.0958 0.971729H0.345925L0 2.51627C5.08078 3.5596 10.8534 5.24223 14.3505 7.0425C16.4909 8.14209 17.1017 9.10359 17.8043 11.717L29.4036 54.1715H44.7757L68.3418 0.971729H53.0671Z" fill="white"/>
</svg>
