<svg width="188" height="31" viewBox="0 0 188 31" fill="none" xmlns="http://www.w3.org/2000/svg">
    <g opacity="0.1">
        <path fill-rule="evenodd" clip-rule="evenodd" d="M0.966797 1.40649V29.6026H9.4965C14.032 29.6026 17.3076 28.595 20.1825 26.3477C23.599 23.6854 25.6194 19.6734 25.6194 15.5241C25.6194 7.20279 19.0155 1.40649 9.54163 1.40649H0.966797ZM16.3661 22.5884C14.5306 24.1483 12.1464 24.8292 8.37149 24.8292H6.80403V6.18427H8.37149C12.1464 6.18427 14.4366 6.82044 16.3661 8.46423C18.3864 10.1581 19.6018 12.7823 19.6018 15.4838C19.6018 18.1897 18.3864 20.8945 16.3661 22.5884Z" fill="white"/>
        <path fill-rule="evenodd" clip-rule="evenodd" d="M28.3086 29.6023H34.1504V1.40621H28.3086V29.6023Z" fill="white"/>
        <path fill-rule="evenodd" clip-rule="evenodd" d="M48.4355 12.1578C44.9301 10.9367 43.9004 10.1306 43.9004 8.60769C43.9004 6.83209 45.7346 5.48242 48.2525 5.48242C50.0025 5.48242 51.4412 6.15998 52.963 7.76564L56.0197 3.99767C53.5076 1.92904 50.5029 0.871311 47.2193 0.871311C41.9204 0.871311 37.8783 4.33645 37.8783 8.95083C37.8783 12.8354 39.7604 14.8234 45.2469 16.6829C47.5338 17.4421 48.6977 17.9487 49.2853 18.2885C50.4523 19.0064 51.0367 20.0216 51.0367 21.2057C51.0367 23.4901 49.1072 25.1829 46.5011 25.1829C43.7147 25.1829 41.4706 23.8713 40.1251 21.4225L36.3516 24.8441C39.0431 28.563 42.2751 30.2112 46.7203 30.2112C52.7908 30.2112 57.0498 26.4116 57.0498 20.953C57.0498 16.4737 55.0805 14.4454 48.4355 12.1578Z" fill="white"/>
        <path fill-rule="evenodd" clip-rule="evenodd" d="M58.8887 15.4479C58.8887 23.7355 65.8006 30.1614 74.696 30.1614C77.2115 30.1614 79.3647 29.6962 82.0213 28.5187V22.0448C79.6852 24.2453 77.6164 25.1331 74.9679 25.1331C69.0843 25.1331 64.9085 21.1167 64.9085 15.4076C64.9085 9.99362 69.2174 5.72347 74.696 5.72347C77.4834 5.72347 79.5915 6.6592 82.0213 8.89558V2.425C79.4562 1.2006 77.348 0.69297 74.8349 0.69297C65.9845 0.69297 58.8887 7.24961 58.8887 15.4479Z" fill="white"/>
        <path fill-rule="evenodd" clip-rule="evenodd" d="M128.343 20.3021L120.356 1.36308H113.975L126.684 30.2825H129.827L142.766 1.36308H136.433L128.343 20.3021Z" fill="white"/>
        <path fill-rule="evenodd" clip-rule="evenodd" d="M145.406 29.6023H161.973V24.8289H151.244V17.2178H161.577V12.4422H151.244V6.18399H161.973V1.40621H145.406V29.6023Z" fill="white"/>
        <path fill-rule="evenodd" clip-rule="evenodd" d="M185.104 9.73111C185.104 4.45225 181.243 1.40649 174.505 1.40649H165.844V29.6026H171.679V18.2758H172.44L180.526 29.6026H187.71L178.282 17.7246C182.682 16.8814 185.104 14.0481 185.104 9.73111ZM173.385 14.3869H171.679V5.84767H173.478C177.116 5.84767 179.093 7.2834 179.093 10.0274C179.093 12.8618 177.116 14.3869 173.385 14.3869Z" fill="white"/>
        <path fill-rule="evenodd" clip-rule="evenodd" d="M83.9258 15.5C83.9258 15.5 83.9258 15.5 83.9258 15.4902C83.9258 7.20588 91.059 0.5 99.8584 0.5C108.658 0.5 115.791 7.20588 115.791 15.4902V15.5C115.791 23.7843 108.658 30.5 99.8584 30.5C91.059 30.5 83.9258 23.7843 83.9258 15.5Z" fill="white"/>
    </g>
</svg>
