<svg width="86" height="65" viewBox="0 0 86 65" fill="none" xmlns="http://www.w3.org/2000/svg">
  <path opacity="0.1" fill-rule="evenodd" clip-rule="evenodd" d="M3.82742 38.9424C2.58441 38.5667 0.0268311 37.3682 0.0268311 37.3682L0.000749312 9.38692C0.000749312 9.38692 -0.135018 6.261 3.24848 3.02786C6.63197 -0.205288 10.3192 0.00270305 10.3192 0.00270305H26.2341L26.1976 53.7963C26.1976 53.7963 26.4389 57.8001 23.5281 61.0851C20.2847 64.8862 15.6744 64.6891 15.6744 64.6891H0.0320459V42.0077L5.85277 43.0508C5.85277 43.0508 8.09462 43.2789 10.3192 43.3253C12.269 43.3661 14.0794 43.192 15.2807 43.0021C17.5786 42.6389 18.7655 42.3208 20.9407 41.0023C24.1819 38.5962 24.0356 34.9007 24.0356 34.9007L23.951 21.9613L14.8904 22.0128V34.7295C14.8904 34.7295 14.9755 37.1151 13.117 38.5916C12.3022 39.2389 11.1156 39.8294 8.90311 39.8294C7.32955 39.8294 5.20913 39.36 3.82742 38.9424ZM29.6057 25.316V11.0619C29.6057 11.0619 29.4444 6.89422 32.4718 3.69927C35.4993 0.504325 39.4375 0.380175 39.4375 0.380175H55.8251V54.4402C55.8251 54.4402 56.0255 58.4121 52.8389 61.7025C49.664 64.9808 46.1583 65 46.1583 65H29.6057V40.1737C29.6057 40.1737 31.7967 42.5309 38.0093 43.4226C40.9257 43.8412 44.376 43.7781 47.2119 43.4226C50.4172 43.0207 52.8389 42.2899 52.8389 42.2899L52.773 37.7896C52.773 37.7896 51.6229 38.5047 48.1083 39.592C44.5937 40.6794 35.8122 41.1739 35.5679 33.0668C35.3236 24.9598 42.8042 24.8878 46.1583 25.316C49.5125 25.7443 52.8389 27.5867 52.8389 27.5867V23.1865C52.8389 23.1865 48.6051 22.2118 46.8002 22.0102C44.574 21.7615 41.4361 21.4928 36.6314 22.2136C31.8266 22.9345 29.6057 25.316 29.6057 25.316ZM58.8345 42.7376V64.6641H75.2888C75.2888 64.6641 79.0653 64.2973 81.2715 62.0789C84.8622 59.2815 85.0233 54.8017 85.0233 54.8017V0.000724288H69.3318C69.3318 0.000724288 65.1469 -0.131669 61.922 3.18346C58.6972 6.49859 58.8345 10.3607 58.8345 10.3607V22.0064H74.7964C74.7964 22.0064 76.2628 22.0313 77.7113 22.614C78.8576 23.0752 79.9772 23.909 80.4582 25.1934C81.5415 28.0783 79.9033 30.1536 79.0653 30.7181C77.962 31.6944 75.988 31.9914 75.988 31.9914C75.988 31.9914 78.8448 32.2861 80.4582 33.7808C80.9914 34.2648 81.6053 35.0747 81.8528 35.886C82.179 36.9552 82.0493 37.9966 82.0493 37.9966C82.0493 37.9966 81.8528 39.831 80.3469 41.0724C79.7044 41.602 78.8315 42.0884 77.9463 42.351C76.7568 42.7039 75.6121 42.7376 75.6121 42.7376H58.8345ZM64.08 25.4717V30.7421H69.7428C69.7428 30.7421 72.3963 30.7342 72.3963 28.1029C72.3963 25.4717 69.7428 25.4717 69.7428 25.4717H64.08ZM70.1371 33.8374H64.08V39.4999H70.1371C70.1545 39.4999 73.1232 39.6755 73.1232 36.6687C73.1232 33.6619 70.1371 33.8374 70.1371 33.8374Z" fill="white"/>
</svg>
