<svg width="98" height="61" viewBox="0 0 98 61" fill="none" xmlns="http://www.w3.org/2000/svg">
  <path opacity="0.1" fill-rule="evenodd" clip-rule="evenodd" d="M97.4981 30.4999C97.4981 47.0685 84.0667 60.4999 67.4981 60.4999C61.3981 60.4999 55.7233 58.6793 50.9874 55.5518C54.4999 52.6121 57.3543 48.9605 59.3596 44.8342C61.5107 40.4076 62.6285 35.5504 62.6285 30.6288C62.6285 25.7073 61.5107 20.85 59.3596 16.4235C57.3216 12.2299 54.4066 8.52668 50.8152 5.56275C55.5854 2.36515 61.324 0.5 67.4981 0.5C84.0667 0.5 97.4981 13.9314 97.4981 30.4999ZM46.5908 5.50136C41.8389 2.34136 36.1344 0.500107 29.9999 0.500107C13.4314 0.500107 0 13.9315 0 30.5001C0 47.0686 13.4314 60.5 29.9999 60.5C36.06 60.5 41.7004 58.7032 46.4174 55.6132C42.8701 52.6652 39.9893 48.9925 37.9706 44.8377C35.8201 40.4115 34.7044 35.5542 34.7079 30.6333C34.703 25.7109 35.8181 20.8519 37.9686 16.424C40.0202 12.2001 42.9628 8.47417 46.5908 5.50136ZM48.8933 54.0357C48.8451 53.9975 48.7971 53.9592 48.7491 53.9208C48.6734 53.9815 48.5975 54.0418 48.5212 54.1017C45.0147 51.3144 42.1774 47.7755 40.2192 43.7451C38.2341 39.6593 37.2043 35.1755 37.2079 30.633C37.2031 26.0891 38.2322 21.6036 40.2174 17.5162C42.2026 13.429 45.0917 9.84702 48.666 7.04155C52.2378 9.84865 55.1254 13.4303 57.111 17.5162C59.0967 21.6022 60.1285 26.0859 60.1285 30.6288C60.1285 35.1718 59.0967 39.6554 57.111 43.7414C55.1677 47.7403 52.3604 51.2562 48.8933 54.0357Z" fill="white"/>
</svg>
